<?xml version="1.0" encoding="UTF-8" ?>
<!DOCTYPE svg PUBLIC "-//W3C//DTD SVG 1.1//EN" "http://www.w3.org/Graphics/SVG/1.1/DTD/svg11.dtd">
<svg width="299pt" height="267pt" viewBox="0 0 299 267" version="1.1" xmlns="http://www.w3.org/2000/svg">
<path fill="#ffffff" d=" M 0.00 0.00 L 205.32 0.00 C 208.25 2.72 211.14 5.82 215.19 6.76 C 230.85 10.73 246.13 17.12 259.03 26.97 C 265.89 32.24 272.05 39.89 271.98 48.95 C 271.34 57.75 265.91 65.46 259.37 71.05 C 258.33 61.40 253.75 51.97 245.85 46.14 C 233.17 36.36 217.08 32.33 201.48 30.22 C 202.37 32.02 203.12 33.99 204.74 35.28 C 213.65 42.99 225.13 47.14 233.68 55.33 C 237.65 59.04 239.44 65.06 237.14 70.15 C 233.98 76.99 227.81 81.89 221.22 85.23 C 221.00 80.29 221.39 74.89 218.38 70.64 C 213.35 62.23 203.25 57.60 193.57 59.10 C 196.83 64.82 203.17 68.01 206.10 73.95 C 207.95 77.35 206.67 81.52 204.37 84.37 C 200.81 88.72 195.83 91.62 190.69 93.73 C 180.00 98.31 168.31 99.59 156.85 100.76 C 147.69 101.67 138.50 100.58 129.40 99.52 C 121.45 98.43 113.42 97.17 105.96 94.07 C 101.48 92.31 97.14 89.66 94.36 85.62 C 92.04 82.22 92.41 77.25 95.19 74.22 C 101.25 67.16 112.94 67.93 117.49 59.21 C 107.28 60.41 97.00 62.86 88.01 68.00 C 83.76 70.38 80.08 74.33 79.11 79.22 C 78.65 82.68 79.88 86.05 80.63 89.38 C 73.37 86.73 66.06 82.98 61.38 76.61 C 58.48 72.48 60.11 66.79 63.26 63.29 C 68.61 57.32 75.87 53.61 82.81 49.81 C 88.11 46.77 94.06 44.61 98.37 40.08 C 93.55 38.66 88.46 38.63 83.54 39.49 C 70.71 41.53 57.85 46.25 48.21 55.21 C 42.51 60.57 39.40 68.23 39.78 76.06 C 33.64 71.93 27.70 66.31 26.15 58.78 C 25.00 51.42 29.10 44.20 34.31 39.31 C 47.24 28.61 63.24 22.37 79.39 18.38 C 86.19 16.58 93.23 15.86 99.97 13.85 C 100.00 12.24 100.01 10.63 100.03 9.02 C 93.24 8.67 86.53 9.91 79.83 10.79 C 61.20 13.45 42.93 18.79 26.01 27.05 C 15.51 32.33 5.01 39.49 0.00 50.54 L 0.00 0.00 Z" />
<path fill="#90c53f" d=" M 205.32 0.00 L 217.27 0.00 C 238.66 4.30 260.36 10.01 278.71 22.28 C 287.36 27.65 294.79 35.21 299.00 44.57 L 299.00 59.49 C 296.40 67.17 290.93 73.29 284.98 78.58 C 285.71 78.82 287.18 79.31 287.91 79.55 C 286.74 89.63 281.08 98.96 272.92 104.93 C 266.20 110.28 258.03 113.24 249.99 115.98 C 234.40 120.83 218.17 123.29 201.95 124.83 C 192.64 125.29 183.31 124.87 174.00 125.00 C 151.31 125.70 128.91 121.23 106.42 119.04 L 105.45 118.76 C 106.81 117.28 108.27 115.70 110.37 115.35 C 123.81 111.75 137.51 115.95 150.99 116.91 C 159.69 117.66 168.33 116.16 177.01 115.82 C 205.92 113.74 235.49 109.22 261.34 95.36 C 269.48 90.95 277.89 86.50 284.35 79.74 C 279.35 82.19 274.76 85.38 269.68 87.69 C 239.59 101.84 206.29 108.53 173.15 109.30 C 163.48 110.56 153.72 109.79 144.00 110.04 C 138.31 110.24 132.66 109.66 127.00 109.18 C 112.50 108.85 98.13 106.60 83.86 104.16 C 77.44 103.13 71.09 101.67 64.82 99.96 C 57.43 97.04 49.55 95.71 41.86 93.82 C 37.50 90.78 32.23 89.66 27.41 87.58 C 16.13 82.78 4.60 75.52 0.00 63.56 L 0.00 50.54 C 5.01 39.49 15.51 32.33 26.01 27.05 C 42.93 18.79 61.20 13.45 79.83 10.79 C 86.53 9.91 93.24 8.67 100.03 9.02 C 100.01 10.63 100.00 12.24 99.97 13.85 C 93.23 15.86 86.19 16.58 79.39 18.38 C 63.24 22.37 47.24 28.61 34.31 39.31 C 29.10 44.20 25.00 51.42 26.15 58.78 C 27.70 66.31 33.64 71.93 39.78 76.06 C 39.40 68.23 42.51 60.57 48.21 55.21 C 57.85 46.25 70.71 41.53 83.54 39.49 C 88.46 38.63 93.55 38.66 98.37 40.08 C 94.06 44.61 88.11 46.77 82.81 49.81 C 75.87 53.61 68.61 57.32 63.26 63.29 C 60.11 66.79 58.48 72.48 61.38 76.61 C 66.06 82.98 73.37 86.73 80.63 89.38 C 79.88 86.05 78.65 82.68 79.11 79.22 C 80.08 74.33 83.76 70.38 88.01 68.00 C 97.00 62.86 107.28 60.41 117.49 59.21 C 112.94 67.93 101.25 67.16 95.19 74.22 C 92.41 77.25 92.04 82.22 94.36 85.62 C 97.14 89.66 101.48 92.31 105.96 94.07 C 113.42 97.17 121.45 98.43 129.40 99.52 C 138.50 100.58 147.69 101.67 156.85 100.76 C 168.31 99.59 180.00 98.31 190.69 93.73 C 195.83 91.62 200.81 88.72 204.37 84.37 C 206.67 81.52 207.95 77.35 206.10 73.95 C 203.17 68.01 196.83 64.82 193.57 59.10 C 203.25 57.60 213.35 62.23 218.38 70.64 C 221.39 74.89 221.00 80.29 221.22 85.23 C 227.81 81.89 233.98 76.99 237.14 70.15 C 239.44 65.06 237.65 59.04 233.68 55.33 C 225.13 47.14 213.65 42.99 204.74 35.28 C 203.12 33.99 202.37 32.02 201.48 30.22 C 217.08 32.33 233.17 36.36 245.85 46.14 C 253.75 51.97 258.33 61.40 259.37 71.05 C 265.91 65.46 271.34 57.75 271.98 48.95 C 272.05 39.89 265.89 32.24 259.03 26.97 C 246.13 17.12 230.85 10.73 215.19 6.76 C 211.14 5.82 208.25 2.72 205.32 0.00 Z" />
<path fill="#ffffff" d=" M 217.27 0.00 L 299.00 0.00 L 299.00 44.57 C 294.79 35.21 287.36 27.65 278.71 22.28 C 260.36 10.01 238.66 4.30 217.27 0.00 Z" />
<path fill="#ffffff" d=" M 284.98 78.58 C 290.93 73.29 296.40 67.17 299.00 59.49 L 299.00 267.00 L 136.58 267.00 C 137.40 263.58 138.15 260.07 140.03 257.05 C 143.92 250.67 150.39 246.17 153.32 239.16 C 145.19 238.52 136.94 239.82 128.89 238.17 C 122.68 237.01 116.84 234.54 110.75 232.98 C 114.22 246.64 123.37 258.48 134.41 267.00 L 0.00 267.00 L 0.00 63.56 C 4.60 75.52 16.13 82.78 27.41 87.58 C 32.23 89.66 37.50 90.78 41.86 93.82 C 44.57 99.51 48.43 104.70 53.43 108.57 C 56.59 111.00 59.84 113.33 63.00 115.77 C 61.84 115.60 60.69 115.44 59.54 115.30 C 62.64 123.79 69.48 130.05 75.74 136.27 C 90.12 149.66 108.71 157.39 127.45 162.49 C 145.26 167.05 163.57 169.52 181.94 170.25 C 190.26 171.27 198.64 171.04 207.00 170.99 C 219.48 170.91 232.23 171.86 244.37 168.38 C 251.80 166.18 259.07 161.77 262.68 154.69 C 264.64 150.96 265.45 146.78 266.04 142.65 C 260.63 144.31 256.11 147.84 250.88 149.90 C 235.78 156.18 219.37 159.48 203.00 159.03 C 179.59 159.62 156.43 154.58 134.12 147.85 C 122.59 143.94 110.76 140.68 99.88 135.10 C 94.06 132.03 88.03 129.19 83.05 124.81 C 113.70 136.98 145.89 146.21 178.94 148.23 C 199.42 150.70 219.94 147.23 240.15 144.17 C 248.80 142.92 257.38 140.41 264.94 135.94 C 272.97 131.27 278.65 122.85 280.19 113.71 C 274.60 115.07 269.82 118.35 264.58 120.56 C 246.41 128.48 226.70 132.45 207.00 133.89 C 198.34 134.19 189.66 133.91 180.99 134.03 C 164.52 133.40 148.23 130.47 132.19 126.81 C 123.49 124.63 114.74 122.44 106.42 119.04 C 128.91 121.23 151.31 125.70 174.00 125.00 C 183.31 124.87 192.64 125.29 201.95 124.83 C 218.17 123.29 234.40 120.83 249.99 115.98 C 258.03 113.24 266.20 110.28 272.92 104.93 C 281.08 98.96 286.74 89.63 287.91 79.55 C 287.18 79.31 285.71 78.82 284.98 78.58 Z" />
<path fill="#46483d" d=" M 112.95 80.38 C 127.20 74.87 142.71 73.09 157.90 74.22 C 165.84 75.28 174.50 74.95 181.48 79.50 C 183.66 80.84 186.08 83.76 184.42 86.35 C 182.45 90.59 178.01 92.80 173.60 93.54 C 159.45 95.98 144.81 98.99 130.58 95.41 C 123.66 94.33 117.15 90.48 113.60 84.35 C 112.88 83.16 113.16 81.69 112.95 80.38 Z" />
<path fill="#ffffff" d=" M 269.68 87.69 C 274.76 85.38 279.35 82.19 284.35 79.74 C 277.89 86.50 269.48 90.95 261.34 95.36 C 235.49 109.22 205.92 113.74 177.01 115.82 C 168.33 116.16 159.69 117.66 150.99 116.91 C 137.51 115.95 123.81 111.75 110.37 115.35 C 108.27 115.70 106.81 117.28 105.45 118.76 C 97.46 116.41 89.78 113.15 82.14 109.87 C 76.08 107.13 69.77 104.56 64.82 99.96 C 71.09 101.67 77.44 103.13 83.86 104.16 C 98.13 106.60 112.50 108.85 127.00 109.18 C 132.66 109.66 138.31 110.24 144.00 110.04 C 153.72 109.79 163.48 110.56 173.15 109.30 C 206.29 108.53 239.59 101.84 269.68 87.69 Z" />
<path fill="#46483d" d=" M 41.86 93.82 C 49.55 95.71 57.43 97.04 64.82 99.96 C 69.77 104.56 76.08 107.13 82.14 109.87 C 89.78 113.15 97.46 116.41 105.45 118.76 L 106.42 119.04 C 114.74 122.44 123.49 124.63 132.19 126.81 C 148.23 130.47 164.52 133.40 180.99 134.03 C 189.66 133.91 198.34 134.19 207.00 133.89 C 226.70 132.45 246.41 128.48 264.58 120.56 C 269.82 118.35 274.60 115.07 280.19 113.71 C 278.65 122.85 272.97 131.27 264.94 135.94 C 257.38 140.41 248.80 142.92 240.15 144.17 C 219.94 147.23 199.42 150.70 178.94 148.23 C 145.89 146.21 113.70 136.98 83.05 124.81 C 76.75 120.96 69.34 119.53 63.00 115.77 C 59.84 113.33 56.59 111.00 53.43 108.57 C 48.43 104.70 44.57 99.51 41.86 93.82 Z" />
<path fill="#90c53f" d=" M 59.54 115.30 C 60.69 115.44 61.84 115.60 63.00 115.77 C 69.34 119.53 76.75 120.96 83.05 124.81 C 88.03 129.19 94.06 132.03 99.88 135.10 C 110.76 140.68 122.59 143.94 134.12 147.85 C 156.43 154.58 179.59 159.62 203.00 159.03 C 219.37 159.48 235.78 156.18 250.88 149.90 C 256.11 147.84 260.63 144.31 266.04 142.65 C 265.45 146.78 264.64 150.96 262.68 154.69 C 259.07 161.77 251.80 166.18 244.37 168.38 C 232.23 171.86 219.48 170.91 207.00 170.99 C 198.64 171.04 190.26 171.27 181.94 170.25 C 163.57 169.52 145.26 167.05 127.45 162.49 C 108.71 157.39 90.12 149.66 75.74 136.27 C 69.48 130.05 62.64 123.79 59.54 115.30 Z" />
<path fill="#46483d" d=" M 107.65 166.15 C 119.00 164.58 129.62 169.48 140.13 172.92 C 151.28 177.20 162.85 181.51 175.00 181.04 C 182.75 180.75 190.55 181.61 198.24 180.34 C 202.61 179.78 207.06 180.23 211.41 179.44 C 215.02 178.82 218.71 178.84 222.35 179.15 C 219.96 184.02 215.00 186.77 210.58 189.57 C 200.44 194.67 188.93 196.66 177.63 196.39 C 171.83 195.80 165.92 196.34 160.23 194.80 C 142.37 191.53 124.82 184.12 111.68 171.32 C 110.03 169.85 108.73 168.07 107.65 166.15 Z" />
<path fill="#90c53f" d=" M 113.89 182.78 C 118.38 184.44 122.21 187.39 126.51 189.46 C 137.83 195.09 150.31 198.25 162.89 199.29 C 171.53 200.60 180.29 199.79 189.00 200.00 C 193.75 200.16 198.68 199.26 203.26 200.93 C 199.46 205.60 194.94 209.92 189.32 212.30 C 177.71 217.02 164.67 218.57 152.40 215.65 C 143.63 214.08 135.18 210.44 128.43 204.57 C 121.17 199.49 114.20 192.14 113.89 182.78 Z" />
<path fill="#46483d" d=" M 115.97 205.93 C 123.90 210.47 131.89 215.57 141.10 216.92 C 146.41 218.05 151.88 217.86 157.24 218.67 C 164.89 219.79 172.81 217.76 180.28 220.28 C 175.65 227.87 167.55 233.25 158.80 234.77 C 151.88 235.37 144.66 235.48 138.10 232.88 C 130.36 230.07 124.20 224.23 118.84 218.17 C 115.79 214.83 115.71 210.17 115.97 205.93 Z" />
<path fill="#90c53f" d=" M 110.75 232.98 C 116.84 234.54 122.68 237.01 128.89 238.17 C 136.94 239.82 145.19 238.52 153.32 239.16 C 150.39 246.17 143.92 250.67 140.03 257.05 C 138.15 260.07 137.40 263.58 136.58 267.00 L 134.41 267.00 C 123.37 258.48 114.22 246.64 110.75 232.98 Z" />
</svg>
