<svg version="1.1" xmlns="http://www.w3.org/2000/svg" xmlns:xlink="http://www.w3.org/1999/xlink" width="450" height="214"><defs></defs><g><g transform="translate(-10,-10) scale(1,1)"><path fill="#ffffff" stroke="none" d="M 316 105 L 439 105 L 439 138 L 316 138"></path></g><g transform="translate(-10,-10) scale(1,1)"><path fill="#ffffff" stroke="none" d="M 316 105 L 326 95 L 449 95 L 439 105"></path></g><g transform="translate(-10,-10) scale(1,1)"><path fill="#ffffff" stroke="none" d="M 449 95 L 439 105 L 439 138 L 449 128"></path></g><g transform="translate(-10,-10) scale(1,1)"><path fill="none" stroke="#000000" d="M 316 105 L 439 105 L 439 138 L 316 138 L 316 105" stroke-miterlimit="10"></path></g><g transform="translate(-10,-10) scale(1,1)"><path fill="none" stroke="#000000" d="M 316 105 L 326 95 L 449 95 L 439 105 L 316 105" stroke-miterlimit="10"></path></g><g transform="translate(-10,-10) scale(1,1)"><path fill="none" stroke="#000000" d="M 449 95 L 439 105 L 439 138 L 449 128 L 449 95" stroke-miterlimit="10"></path></g><g transform="translate(-10,-10) scale(1,1)"><g><path fill="none" stroke="none"></path><text fill="#000000" stroke="none" font-family="Arial" font-size="13px" font-style="normal" font-weight="bold" text-decoration="none" x="336.5" y="124.5">Client Provider</text></g></g><g transform="translate(-10,-10) scale(1,1)"><path fill="#ffffff" stroke="none" d="M 167 105 L 274 105 L 274 138 L 167 138"></path></g><g transform="translate(-10,-10) scale(1,1)"><path fill="#ffffff" stroke="none" d="M 167 105 L 177 95 L 284 95 L 274 105"></path></g><g transform="translate(-10,-10) scale(1,1)"><path fill="#ffffff" stroke="none" d="M 284 95 L 274 105 L 274 138 L 284 128"></path></g><g transform="translate(-10,-10) scale(1,1)"><path fill="none" stroke="#000000" d="M 167 105 L 274 105 L 274 138 L 167 138 L 167 105" stroke-miterlimit="10"></path></g><g transform="translate(-10,-10) scale(1,1)"><path fill="none" stroke="#000000" d="M 167 105 L 177 95 L 284 95 L 274 105 L 167 105" stroke-miterlimit="10"></path></g><g transform="translate(-10,-10) scale(1,1)"><path fill="none" stroke="#000000" d="M 284 95 L 274 105 L 274 138 L 284 128 L 284 95" stroke-miterlimit="10"></path></g><g transform="translate(-10,-10) scale(1,1)"><g><path fill="none" stroke="none"></path><text fill="#000000" stroke="none" font-family="Arial" font-size="13px" font-style="normal" font-weight="bold" text-decoration="none" x="181" y="124.5">Users Service</text></g></g><g transform="translate(-10,-10) scale(1,1)"><path fill="#ffffff" stroke="none" d="M 20 105 L 125 105 L 125 138 L 20 138"></path></g><g transform="translate(-10,-10) scale(1,1)"><path fill="#ffffff" stroke="none" d="M 20 105 L 30 95 L 135 95 L 125 105"></path></g><g transform="translate(-10,-10) scale(1,1)"><path fill="#ffffff" stroke="none" d="M 135 95 L 125 105 L 125 138 L 135 128"></path></g><g transform="translate(-10,-10) scale(1,1)"><path fill="none" stroke="#000000" d="M 20 105 L 125 105 L 125 138 L 20 138 L 20 105" stroke-miterlimit="10"></path></g><g transform="translate(-10,-10) scale(1,1)"><path fill="none" stroke="#000000" d="M 20 105 L 30 95 L 135 95 L 125 105 L 20 105" stroke-miterlimit="10"></path></g><g transform="translate(-10,-10) scale(1,1)"><path fill="none" stroke="#000000" d="M 135 95 L 125 105 L 125 138 L 135 128 L 135 95" stroke-miterlimit="10"></path></g><g transform="translate(-10,-10) scale(1,1)"><g><path fill="none" stroke="none"></path><text fill="#000000" stroke="none" font-family="Arial" font-size="13px" font-style="normal" font-weight="bold" text-decoration="none" x="36" y="124.5">World Server</text></g></g><g transform="translate(-10,-10) scale(1,1)"><path fill="#ffffff" stroke="none" d="M 34 30 L 111 30 L 111 63 L 34 63"></path></g><g transform="translate(-10,-10) scale(1,1)"><path fill="#ffffff" stroke="none" d="M 34 30 L 44 20 L 121 20 L 111 30"></path></g><g transform="translate(-10,-10) scale(1,1)"><path fill="#ffffff" stroke="none" d="M 121 20 L 111 30 L 111 63 L 121 53"></path></g><g transform="translate(-10,-10) scale(1,1)"><path fill="none" stroke="#000000" d="M 34 30 L 111 30 L 111 63 L 34 63 L 34 30" stroke-miterlimit="10"></path></g><g transform="translate(-10,-10) scale(1,1)"><path fill="none" stroke="#000000" d="M 34 30 L 44 20 L 121 20 L 111 30 L 34 30" stroke-miterlimit="10"></path></g><g transform="translate(-10,-10) scale(1,1)"><path fill="none" stroke="#000000" d="M 121 20 L 111 30 L 111 63 L 121 53 L 121 20" stroke-miterlimit="10"></path></g><g transform="translate(-10,-10) scale(1,1)"><g><path fill="none" stroke="none"></path><text fill="#000000" stroke="none" font-family="Arial" font-size="13px" font-style="normal" font-weight="bold" text-decoration="none" x="40" y="49.5">Backup DB</text></g></g><g transform="translate(-10,-10) scale(1,1)"><path fill="#ffffff" stroke="none" d="M 178.5 180 L 262.5 180 L 262.5 213 L 178.5 213"></path></g><g transform="translate(-10,-10) scale(1,1)"><path fill="#ffffff" stroke="none" d="M 178.5 180 L 188.5 170 L 272.5 170 L 262.5 180"></path></g><g transform="translate(-10,-10) scale(1,1)"><path fill="#ffffff" stroke="none" d="M 272.5 170 L 262.5 180 L 262.5 213 L 272.5 203"></path></g><g transform="translate(-10,-10) scale(1,1)"><path fill="none" stroke="#000000" d="M 178.5 180 L 262.5 180 L 262.5 213 L 178.5 213 L 178.5 180" stroke-miterlimit="10"></path></g><g transform="translate(-10,-10) scale(1,1)"><path fill="none" stroke="#000000" d="M 178.5 180 L 188.5 170 L 272.5 170 L 262.5 180 L 178.5 180" stroke-miterlimit="10"></path></g><g transform="translate(-10,-10) scale(1,1)"><path fill="none" stroke="#000000" d="M 272.5 170 L 262.5 180 L 262.5 213 L 272.5 203 L 272.5 170" stroke-miterlimit="10"></path></g><g transform="translate(-10,-10) scale(1,1)"><g><path fill="none" stroke="none"></path><text fill="#000000" stroke="none" font-family="Arial" font-size="13px" font-style="normal" font-weight="bold" text-decoration="none" x="204.5" y="199.5">Client</text></g></g><g transform="translate(-10,-10) scale(1,1)"><path fill="none" stroke="#000000" d="M 178 180 Q 79 155 79 140" stroke-miterlimit="10"></path></g><g transform="translate(-10,-10) scale(1,1)"><path fill="none" stroke="#000000" d="M 227 169 Q 227 155 227 140" stroke-miterlimit="10"></path></g><g transform="translate(-10,-10) scale(1,1)"><path fill="none" stroke="#000000" d="M 231.209517756016 150.16267485762415 L 227 140 L 222.790482243984 150.16267485762415" stroke-miterlimit="10"></path></g><g transform="translate(-10,-10) scale(1,1)"><path fill="none" stroke="#000000" d="M 79 94 Q 79 80 79 65" stroke-miterlimit="10"></path></g><g transform="translate(-10,-10) scale(1,1)"><path fill="#ffffff" stroke="none" d="M 185.75 23.5 L 255.25 23.5 L 265.25 33.5 L 265.25 59.5 L 185.75 59.5 L 185.75 23.5"></path></g><g transform="translate(-10,-10) scale(1,1)"><path fill="none" stroke="#000000" d="M 185.75 23.5 L 255.25 23.5 L 265.25 33.5 L 265.25 59.5 L 185.75 59.5 L 185.75 23.5 L 185.75 23.5" stroke-miterlimit="10"></path></g><g transform="translate(-10,-10) scale(1,1)"><path fill="none" stroke="#000000" d="M 255.25 23.5 L 255.25 33.5 L 265.25 33.5 L 255.25 23.5" stroke-miterlimit="10"></path></g><g transform="translate(-10,-10) scale(1,1)"><g><path fill="none" stroke="none"></path><text fill="#000000" stroke="none" font-family="Arial" font-size="13px" font-style="normal" font-weight="normal" text-decoration="none" x="190.75" y="41.5">Users DB</text></g></g><g transform="translate(-10,-10) scale(1,1)"><path fill="none" stroke="#000000" d="M 227 94 Q 227 80 227 62" stroke-miterlimit="10" stroke-dasharray="3"></path></g><g transform="translate(-10,-10) scale(1,1)"><path fill="#ffffff" stroke="none" d="M 345 23.5 L 410 23.5 L 420 33.5 L 420 59.5 L 345 59.5 L 345 23.5"></path></g><g transform="translate(-10,-10) scale(1,1)"><path fill="none" stroke="#000000" d="M 345 23.5 L 410 23.5 L 420 33.5 L 420 59.5 L 345 59.5 L 345 23.5 L 345 23.5" stroke-miterlimit="10"></path></g><g transform="translate(-10,-10) scale(1,1)"><path fill="none" stroke="#000000" d="M 410 23.5 L 410 33.5 L 420 33.5 L 410 23.5" stroke-miterlimit="10"></path></g><g transform="translate(-10,-10) scale(1,1)"><g><path fill="none" stroke="none"></path><text fill="#000000" stroke="none" font-family="Arial" font-size="13px" font-style="normal" font-weight="normal" text-decoration="none" x="350" y="41.5">Static</text><text fill="#000000" stroke="none" font-family="Arial" font-size="13px" font-style="normal" font-weight="normal" text-decoration="none" x="350" y="54.5">resources</text></g></g><g transform="translate(-10,-10) scale(1,1)"><path fill="none" stroke="#000000" d="M 384 94 Q 384 80 384 62" stroke-miterlimit="10" stroke-dasharray="3"></path></g><g transform="translate(-10,-10) scale(1,1)"><path fill="none" stroke="#000000" d="M 275 192 Q 368 192 378 140" stroke-miterlimit="10"></path></g><g transform="translate(-10,-10) scale(1,1)"><path fill="none" stroke="#000000" d="M 380.21457891571123 150.77476868550258 L 378 140 L 371.94703176553685 149.18485577200752" stroke-miterlimit="10"></path></g></g></svg>